<mxfile host="Electron" agent="Mozilla/5.0 (Windows NT 10.0; Win64; x64) AppleWebKit/537.36 (KHTML, like Gecko) draw.io/24.7.8 Chrome/128.0.6613.36 Electron/32.0.1 Safari/537.36" version="24.7.8">
  <diagram name="Seite-1" id="PyxTWwx3nbOsXCblU1ni">
    <mxGraphModel dx="2022" dy="1872" grid="1" gridSize="10" guides="1" tooltips="1" connect="1" arrows="1" fold="1" page="1" pageScale="1" pageWidth="827" pageHeight="1169" math="0" shadow="0">
      <root>
        <mxCell id="0" />
        <mxCell id="1" parent="0" />
        <mxCell id="ZlVxveGEcr_eJ24ZWg6B-30" value="Ein Java Module" style="rounded=0;whiteSpace=wrap;html=1;verticalAlign=top;" vertex="1" parent="1">
          <mxGeometry x="-70" y="-50" width="810" height="780" as="geometry" />
        </mxCell>
        <mxCell id="ZlVxveGEcr_eJ24ZWg6B-1" value="de.iad.access" style="shape=folder;fontStyle=1;tabWidth=110;tabHeight=30;tabPosition=left;html=1;boundedLbl=1;labelInHeader=1;container=1;collapsible=0;recursiveResize=0;whiteSpace=wrap;" vertex="1" parent="1">
          <mxGeometry x="40" y="40" width="660" height="260" as="geometry" />
        </mxCell>
        <mxCell id="ZlVxveGEcr_eJ24ZWg6B-4" value="BaseClass" style="swimlane;fontStyle=1;align=center;verticalAlign=top;childLayout=stackLayout;horizontal=1;startSize=26;horizontalStack=0;resizeParent=1;resizeParentMax=0;resizeLast=0;collapsible=1;marginBottom=0;whiteSpace=wrap;html=1;" vertex="1" parent="ZlVxveGEcr_eJ24ZWg6B-1">
          <mxGeometry x="30" y="60" width="160" height="164" as="geometry" />
        </mxCell>
        <mxCell id="ZlVxveGEcr_eJ24ZWg6B-5" value="+ publicField" style="text;strokeColor=none;fillColor=none;align=left;verticalAlign=top;spacingLeft=4;spacingRight=4;overflow=hidden;rotatable=0;points=[[0,0.5],[1,0.5]];portConstraint=eastwest;whiteSpace=wrap;html=1;" vertex="1" parent="ZlVxveGEcr_eJ24ZWg6B-4">
          <mxGeometry y="26" width="160" height="26" as="geometry" />
        </mxCell>
        <mxCell id="ZlVxveGEcr_eJ24ZWg6B-8" value="- privateField" style="text;strokeColor=none;fillColor=none;align=left;verticalAlign=top;spacingLeft=4;spacingRight=4;overflow=hidden;rotatable=0;points=[[0,0.5],[1,0.5]];portConstraint=eastwest;whiteSpace=wrap;html=1;" vertex="1" parent="ZlVxveGEcr_eJ24ZWg6B-4">
          <mxGeometry y="52" width="160" height="26" as="geometry" />
        </mxCell>
        <mxCell id="ZlVxveGEcr_eJ24ZWg6B-9" value="~ packagePrivateField" style="text;strokeColor=none;fillColor=none;align=left;verticalAlign=top;spacingLeft=4;spacingRight=4;overflow=hidden;rotatable=0;points=[[0,0.5],[1,0.5]];portConstraint=eastwest;whiteSpace=wrap;html=1;" vertex="1" parent="ZlVxveGEcr_eJ24ZWg6B-4">
          <mxGeometry y="78" width="160" height="26" as="geometry" />
        </mxCell>
        <mxCell id="ZlVxveGEcr_eJ24ZWg6B-10" value="# protectedField" style="text;strokeColor=none;fillColor=none;align=left;verticalAlign=top;spacingLeft=4;spacingRight=4;overflow=hidden;rotatable=0;points=[[0,0.5],[1,0.5]];portConstraint=eastwest;whiteSpace=wrap;html=1;" vertex="1" parent="ZlVxveGEcr_eJ24ZWg6B-4">
          <mxGeometry y="104" width="160" height="26" as="geometry" />
        </mxCell>
        <mxCell id="ZlVxveGEcr_eJ24ZWg6B-6" value="" style="line;strokeWidth=1;fillColor=none;align=left;verticalAlign=middle;spacingTop=-1;spacingLeft=3;spacingRight=3;rotatable=0;labelPosition=right;points=[];portConstraint=eastwest;strokeColor=inherit;" vertex="1" parent="ZlVxveGEcr_eJ24ZWg6B-4">
          <mxGeometry y="130" width="160" height="8" as="geometry" />
        </mxCell>
        <mxCell id="ZlVxveGEcr_eJ24ZWg6B-7" value="&amp;nbsp;" style="text;strokeColor=none;fillColor=none;align=left;verticalAlign=top;spacingLeft=4;spacingRight=4;overflow=hidden;rotatable=0;points=[[0,0.5],[1,0.5]];portConstraint=eastwest;whiteSpace=wrap;html=1;" vertex="1" parent="ZlVxveGEcr_eJ24ZWg6B-4">
          <mxGeometry y="138" width="160" height="26" as="geometry" />
        </mxCell>
        <mxCell id="ZlVxveGEcr_eJ24ZWg6B-33" style="rounded=0;orthogonalLoop=1;jettySize=auto;html=1;dashed=1;endArrow=open;endFill=0;" edge="1" parent="ZlVxveGEcr_eJ24ZWg6B-1" source="ZlVxveGEcr_eJ24ZWg6B-18" target="ZlVxveGEcr_eJ24ZWg6B-4">
          <mxGeometry relative="1" as="geometry" />
        </mxCell>
        <mxCell id="ZlVxveGEcr_eJ24ZWg6B-18" value="AnotherBaseClass" style="swimlane;fontStyle=1;align=center;verticalAlign=top;childLayout=stackLayout;horizontal=1;startSize=26;horizontalStack=0;resizeParent=1;resizeParentMax=0;resizeLast=0;collapsible=1;marginBottom=0;whiteSpace=wrap;html=1;" vertex="1" parent="ZlVxveGEcr_eJ24ZWg6B-1">
          <mxGeometry x="320" y="60" width="160" height="86" as="geometry" />
        </mxCell>
        <mxCell id="ZlVxveGEcr_eJ24ZWg6B-21" value="&amp;nbsp;" style="text;strokeColor=none;fillColor=none;align=left;verticalAlign=top;spacingLeft=4;spacingRight=4;overflow=hidden;rotatable=0;points=[[0,0.5],[1,0.5]];portConstraint=eastwest;whiteSpace=wrap;html=1;" vertex="1" parent="ZlVxveGEcr_eJ24ZWg6B-18">
          <mxGeometry y="26" width="160" height="26" as="geometry" />
        </mxCell>
        <mxCell id="ZlVxveGEcr_eJ24ZWg6B-23" value="" style="line;strokeWidth=1;fillColor=none;align=left;verticalAlign=middle;spacingTop=-1;spacingLeft=3;spacingRight=3;rotatable=0;labelPosition=right;points=[];portConstraint=eastwest;strokeColor=inherit;" vertex="1" parent="ZlVxveGEcr_eJ24ZWg6B-18">
          <mxGeometry y="52" width="160" height="8" as="geometry" />
        </mxCell>
        <mxCell id="ZlVxveGEcr_eJ24ZWg6B-24" value="&amp;nbsp;" style="text;strokeColor=none;fillColor=none;align=left;verticalAlign=top;spacingLeft=4;spacingRight=4;overflow=hidden;rotatable=0;points=[[0,0.5],[1,0.5]];portConstraint=eastwest;whiteSpace=wrap;html=1;" vertex="1" parent="ZlVxveGEcr_eJ24ZWg6B-18">
          <mxGeometry y="60" width="160" height="26" as="geometry" />
        </mxCell>
        <mxCell id="ZlVxveGEcr_eJ24ZWg6B-31" value="Hat Zugriff auf publicField, packagePrivateField und protectedField, aber nicht auf privateField." style="shape=note2;boundedLbl=1;whiteSpace=wrap;html=1;size=12;verticalAlign=top;align=left;fillColor=#fff2cc;strokeColor=#d6b656;spacing=5;" vertex="1" parent="ZlVxveGEcr_eJ24ZWg6B-1">
          <mxGeometry x="470" width="190" height="100" as="geometry" />
        </mxCell>
        <mxCell id="ZlVxveGEcr_eJ24ZWg6B-37" value="Hat Zugriff auf alle Felder, unabhÃ¤ngig von der Zugriffsebene." style="shape=note2;boundedLbl=1;whiteSpace=wrap;html=1;size=12;verticalAlign=top;align=left;fillColor=#fff2cc;strokeColor=#d6b656;spacing=5;" vertex="1" parent="ZlVxveGEcr_eJ24ZWg6B-1">
          <mxGeometry x="60" y="-10" width="190" height="80" as="geometry" />
        </mxCell>
        <mxCell id="ZlVxveGEcr_eJ24ZWg6B-3" value="de.iad.test" style="shape=folder;fontStyle=1;tabWidth=110;tabHeight=30;tabPosition=left;html=1;boundedLbl=1;labelInHeader=1;container=1;collapsible=0;recursiveResize=0;whiteSpace=wrap;" vertex="1" parent="1">
          <mxGeometry x="40" y="360" width="670" height="260" as="geometry" />
        </mxCell>
        <mxCell id="ZlVxveGEcr_eJ24ZWg6B-11" value="DerivedClass" style="swimlane;fontStyle=1;align=center;verticalAlign=top;childLayout=stackLayout;horizontal=1;startSize=26;horizontalStack=0;resizeParent=1;resizeParentMax=0;resizeLast=0;collapsible=1;marginBottom=0;whiteSpace=wrap;html=1;" vertex="1" parent="ZlVxveGEcr_eJ24ZWg6B-3">
          <mxGeometry x="110" y="61" width="160" height="86" as="geometry" />
        </mxCell>
        <mxCell id="ZlVxveGEcr_eJ24ZWg6B-15" value="&amp;nbsp;" style="text;strokeColor=none;fillColor=none;align=left;verticalAlign=top;spacingLeft=4;spacingRight=4;overflow=hidden;rotatable=0;points=[[0,0.5],[1,0.5]];portConstraint=eastwest;whiteSpace=wrap;html=1;" vertex="1" parent="ZlVxveGEcr_eJ24ZWg6B-11">
          <mxGeometry y="26" width="160" height="26" as="geometry" />
        </mxCell>
        <mxCell id="ZlVxveGEcr_eJ24ZWg6B-16" value="" style="line;strokeWidth=1;fillColor=none;align=left;verticalAlign=middle;spacingTop=-1;spacingLeft=3;spacingRight=3;rotatable=0;labelPosition=right;points=[];portConstraint=eastwest;strokeColor=inherit;" vertex="1" parent="ZlVxveGEcr_eJ24ZWg6B-11">
          <mxGeometry y="52" width="160" height="8" as="geometry" />
        </mxCell>
        <mxCell id="ZlVxveGEcr_eJ24ZWg6B-17" value="&amp;nbsp;" style="text;strokeColor=none;fillColor=none;align=left;verticalAlign=top;spacingLeft=4;spacingRight=4;overflow=hidden;rotatable=0;points=[[0,0.5],[1,0.5]];portConstraint=eastwest;whiteSpace=wrap;html=1;" vertex="1" parent="ZlVxveGEcr_eJ24ZWg6B-11">
          <mxGeometry y="60" width="160" height="26" as="geometry" />
        </mxCell>
        <mxCell id="ZlVxveGEcr_eJ24ZWg6B-26" value="SomeTestClass" style="swimlane;fontStyle=1;align=center;verticalAlign=top;childLayout=stackLayout;horizontal=1;startSize=26;horizontalStack=0;resizeParent=1;resizeParentMax=0;resizeLast=0;collapsible=1;marginBottom=0;whiteSpace=wrap;html=1;" vertex="1" parent="ZlVxveGEcr_eJ24ZWg6B-3">
          <mxGeometry x="330" y="61" width="160" height="86" as="geometry" />
        </mxCell>
        <mxCell id="ZlVxveGEcr_eJ24ZWg6B-27" value="&amp;nbsp;" style="text;strokeColor=none;fillColor=none;align=left;verticalAlign=top;spacingLeft=4;spacingRight=4;overflow=hidden;rotatable=0;points=[[0,0.5],[1,0.5]];portConstraint=eastwest;whiteSpace=wrap;html=1;" vertex="1" parent="ZlVxveGEcr_eJ24ZWg6B-26">
          <mxGeometry y="26" width="160" height="26" as="geometry" />
        </mxCell>
        <mxCell id="ZlVxveGEcr_eJ24ZWg6B-28" value="" style="line;strokeWidth=1;fillColor=none;align=left;verticalAlign=middle;spacingTop=-1;spacingLeft=3;spacingRight=3;rotatable=0;labelPosition=right;points=[];portConstraint=eastwest;strokeColor=inherit;" vertex="1" parent="ZlVxveGEcr_eJ24ZWg6B-26">
          <mxGeometry y="52" width="160" height="8" as="geometry" />
        </mxCell>
        <mxCell id="ZlVxveGEcr_eJ24ZWg6B-29" value="&amp;nbsp;" style="text;strokeColor=none;fillColor=none;align=left;verticalAlign=top;spacingLeft=4;spacingRight=4;overflow=hidden;rotatable=0;points=[[0,0.5],[1,0.5]];portConstraint=eastwest;whiteSpace=wrap;html=1;" vertex="1" parent="ZlVxveGEcr_eJ24ZWg6B-26">
          <mxGeometry y="60" width="160" height="26" as="geometry" />
        </mxCell>
        <mxCell id="ZlVxveGEcr_eJ24ZWg6B-32" value="Zugriff ist nur auf publicField mÃ¶glich." style="shape=note2;boundedLbl=1;whiteSpace=wrap;html=1;size=12;verticalAlign=top;align=left;fillColor=#fff2cc;strokeColor=#d6b656;spacing=5;" vertex="1" parent="ZlVxveGEcr_eJ24ZWg6B-3">
          <mxGeometry x="480" y="20" width="190" height="60" as="geometry" />
        </mxCell>
        <mxCell id="ZlVxveGEcr_eJ24ZWg6B-35" value="Zugriff nur auf publicField mÃ¶glich.&amp;nbsp;&lt;div&gt;Zugriff auf protectedField nur fÃ¼r this mÃ¶glich.&lt;/div&gt;" style="shape=note2;boundedLbl=1;whiteSpace=wrap;html=1;size=12;verticalAlign=top;align=left;fillColor=#fff2cc;strokeColor=#d6b656;spacing=5;" vertex="1" parent="ZlVxveGEcr_eJ24ZWg6B-3">
          <mxGeometry x="80" y="130" width="190" height="90" as="geometry" />
        </mxCell>
        <mxCell id="ZlVxveGEcr_eJ24ZWg6B-25" style="edgeStyle=orthogonalEdgeStyle;rounded=0;orthogonalLoop=1;jettySize=auto;html=1;endArrow=block;endFill=0;endSize=12;" edge="1" parent="1" source="ZlVxveGEcr_eJ24ZWg6B-11" target="ZlVxveGEcr_eJ24ZWg6B-4">
          <mxGeometry relative="1" as="geometry" />
        </mxCell>
        <mxCell id="ZlVxveGEcr_eJ24ZWg6B-34" style="rounded=0;orthogonalLoop=1;jettySize=auto;html=1;dashed=1;endArrow=open;endFill=0;" edge="1" parent="1" source="ZlVxveGEcr_eJ24ZWg6B-26" target="ZlVxveGEcr_eJ24ZWg6B-4">
          <mxGeometry relative="1" as="geometry">
            <mxPoint x="370" y="164" as="sourcePoint" />
            <mxPoint x="240" y="181" as="targetPoint" />
          </mxGeometry>
        </mxCell>
        <mxCell id="ZlVxveGEcr_eJ24ZWg6B-36" value="&lt;font style=&quot;font-size: 23px;&quot;&gt;Bei der Zugriffssteuerung wird berÃ¼cksichtigt, ob auf &lt;b&gt;this &lt;/b&gt;zugegriffen wird oder auf eine andere Instanz.&lt;/font&gt;" style="text;html=1;align=center;verticalAlign=middle;whiteSpace=wrap;rounded=0;" vertex="1" parent="1">
          <mxGeometry y="-160" width="640" height="100" as="geometry" />
        </mxCell>
        <mxCell id="ZlVxveGEcr_eJ24ZWg6B-38" value="Eine Top-Level Klasse ist eine Klasse, die nicht in einer anderen Klasse verschachtelt ist. FÃ¼r Top-Level Klassen existieren nur 2 Zugriffsebenen: public und package-private." style="text;html=1;align=center;verticalAlign=middle;whiteSpace=wrap;rounded=0;fontSize=21;" vertex="1" parent="1">
          <mxGeometry x="10" y="-250" width="650" height="90" as="geometry" />
        </mxCell>
      </root>
    </mxGraphModel>
  </diagram>
</mxfile>
